<svg id="Layer_1" data-name="Layer 1" xmlns="http://www.w3.org/2000/svg" viewBox="0 0 1000 564.71"><defs><style>.cls-1{fill:#f18f01;}</style></defs><path class="cls-1" d="M289.1,537.08,67.14,430.4S1.75,402.87,0,347.81,67.14,237.68,67.14,237.68l199.59-203S289.1,5.4,313.19.24s165.18,75.7,208.2,101.51S647,225.64,647,225.64l-91.19,8.6,118.72,34.3s22.37,44.85,22.37,62.06,18.93-22.61,18.93-62.06l101.52-85.92-99.8,29.25s8.6-144.53-8.6-182.38l227.12,108.4s68.83,32.69,63.66,82.59-29.25,68.82-29.25,68.82L727.86,537.08s-18.92,24.08-48.18,27.53S502.46,487.18,459.44,451,352.76,339.2,352.76,339.2l92.92-3.44s-80.87-34.41-117-37.85c0,0-17.2-31-22.36-68.83,0,0-24.09,44.74-18.93,68.83L177.26,387.38,280.5,351.25S285.66,476.85,289.1,537.08Z" transform="translate(0)"/></svg>